G04 EAGLE Gerber RS-274X export*
G75*
%MOMM*%
%FSLAX34Y34*%
%LPD*%
%INBottom Copper*%
%IPPOS*%
%AMOC8*
5,1,8,0,0,1.08239X$1,22.5*%
G01*
G04 Define Apertures*
%ADD10R,1.524000X1.524000*%
%ADD11C,1.524000*%
%ADD12C,1.524000*%
%ADD13C,1.148000*%
%ADD14C,1.008000*%
%ADD15C,1.430000*%
%ADD16P,1.92449X8X292.5*%
%ADD17R,1.778000X1.778000*%
%ADD18C,0.304800*%
G36*
X48450Y-53280D02*
X48700Y-53108D01*
X48864Y-52853D01*
X48915Y-52554D01*
X48845Y-52259D01*
X48692Y-52039D01*
X46736Y-50083D01*
X46736Y15577D01*
X46676Y15874D01*
X46504Y16124D01*
X46266Y16281D01*
X45045Y16787D01*
X42187Y19645D01*
X40640Y23379D01*
X40640Y27421D01*
X42187Y31155D01*
X45045Y34013D01*
X48779Y35560D01*
X52821Y35560D01*
X56555Y34013D01*
X59413Y31155D01*
X60960Y27421D01*
X60960Y23379D01*
X59413Y19645D01*
X56555Y16787D01*
X55334Y16281D01*
X55083Y16112D01*
X54917Y15857D01*
X54864Y15577D01*
X54864Y-45974D01*
X54924Y-46271D01*
X55096Y-46521D01*
X55351Y-46685D01*
X55626Y-46736D01*
X198374Y-46736D01*
X198671Y-46676D01*
X198921Y-46504D01*
X199085Y-46249D01*
X199136Y-45974D01*
X199136Y-42843D01*
X199076Y-42546D01*
X198904Y-42296D01*
X198666Y-42139D01*
X197445Y-41633D01*
X194587Y-38775D01*
X193040Y-35041D01*
X193040Y-15759D01*
X194587Y-12025D01*
X197445Y-9167D01*
X201179Y-7620D01*
X205221Y-7620D01*
X208955Y-9167D01*
X211813Y-12025D01*
X213360Y-15759D01*
X213360Y-35041D01*
X211813Y-38775D01*
X208955Y-41633D01*
X207734Y-42139D01*
X207483Y-42308D01*
X207317Y-42563D01*
X207264Y-42843D01*
X207264Y-45974D01*
X207324Y-46271D01*
X207496Y-46521D01*
X207751Y-46685D01*
X208026Y-46736D01*
X467901Y-46736D01*
X468198Y-46676D01*
X468440Y-46513D01*
X541813Y26860D01*
X541980Y27113D01*
X542036Y27399D01*
X542036Y199368D01*
X541976Y199666D01*
X541813Y199907D01*
X529027Y212693D01*
X528774Y212860D01*
X528488Y212916D01*
X486988Y212916D01*
X486691Y212856D01*
X486441Y212684D01*
X486284Y212446D01*
X486219Y212290D01*
X483890Y209961D01*
X480847Y208700D01*
X477553Y208700D01*
X474510Y209961D01*
X472181Y212290D01*
X470920Y215333D01*
X470920Y218627D01*
X470985Y218783D01*
X471043Y219081D01*
X470980Y219377D01*
X470819Y219613D01*
X466120Y224313D01*
X465867Y224480D01*
X465581Y224536D01*
X404717Y224536D01*
X402336Y226917D01*
X402336Y279908D01*
X402276Y280205D01*
X402104Y280455D01*
X401849Y280619D01*
X401574Y280670D01*
X396458Y280670D01*
X394970Y282158D01*
X394970Y302042D01*
X396458Y303530D01*
X416342Y303530D01*
X417830Y302042D01*
X417830Y282158D01*
X416342Y280670D01*
X411226Y280670D01*
X410929Y280610D01*
X410679Y280438D01*
X410515Y280183D01*
X410464Y279908D01*
X410464Y233426D01*
X410524Y233129D01*
X410696Y232879D01*
X410951Y232715D01*
X411226Y232664D01*
X469263Y232664D01*
X476567Y225361D01*
X476820Y225193D01*
X477118Y225138D01*
X477397Y225195D01*
X477553Y225260D01*
X480847Y225260D01*
X483890Y223999D01*
X486219Y221670D01*
X486284Y221514D01*
X486454Y221263D01*
X486708Y221097D01*
X486988Y221044D01*
X532171Y221044D01*
X550164Y203051D01*
X550164Y23717D01*
X474408Y-52039D01*
X474241Y-52292D01*
X474185Y-52590D01*
X474250Y-52886D01*
X474426Y-53134D01*
X474684Y-53293D01*
X474947Y-53340D01*
X526417Y-53340D01*
X526715Y-53280D01*
X526965Y-53108D01*
X527128Y-52853D01*
X527179Y-52554D01*
X527109Y-52259D01*
X527001Y-52088D01*
X525327Y-50093D01*
X522478Y-42265D01*
X522478Y-33935D01*
X525327Y-26107D01*
X530682Y-19725D01*
X537896Y-15560D01*
X546100Y-14114D01*
X554304Y-15560D01*
X559997Y-18847D01*
X560285Y-18943D01*
X560587Y-18920D01*
X560856Y-18780D01*
X561050Y-18547D01*
X561140Y-18187D01*
X561140Y284887D01*
X561080Y285184D01*
X560908Y285435D01*
X560653Y285598D01*
X560354Y285649D01*
X559997Y285547D01*
X554304Y282260D01*
X546100Y280814D01*
X537896Y282260D01*
X530682Y286425D01*
X525327Y292807D01*
X522478Y300635D01*
X522478Y308965D01*
X525327Y316793D01*
X527001Y318788D01*
X527146Y319055D01*
X527175Y319357D01*
X527085Y319646D01*
X526888Y319877D01*
X526617Y320013D01*
X526417Y320040D01*
X231024Y320040D01*
X230850Y320020D01*
X230108Y319847D01*
X228995Y320030D01*
X228871Y320040D01*
X227744Y320040D01*
X227508Y320138D01*
X227227Y320195D01*
X219593Y320297D01*
X219368Y320266D01*
X211303Y317892D01*
X211097Y317796D01*
X205057Y313786D01*
X204820Y313535D01*
X178892Y269057D01*
X178818Y268883D01*
X178637Y268253D01*
X177870Y267287D01*
X177808Y267197D01*
X177187Y266131D01*
X176665Y265734D01*
X176530Y265602D01*
X174039Y262468D01*
X165173Y256410D01*
X154913Y253240D01*
X9180Y253240D01*
X8883Y253180D01*
X8633Y253008D01*
X8470Y252753D01*
X8419Y252454D01*
X8464Y252217D01*
X10922Y245465D01*
X10922Y237135D01*
X8073Y229307D01*
X2718Y222925D01*
X-4496Y218760D01*
X-12700Y217314D01*
X-20904Y218760D01*
X-26797Y222163D01*
X-27085Y222259D01*
X-27387Y222235D01*
X-27656Y222096D01*
X-27850Y221862D01*
X-27940Y221503D01*
X-27940Y-18303D01*
X-27880Y-18600D01*
X-27708Y-18850D01*
X-27453Y-19013D01*
X-27154Y-19064D01*
X-26797Y-18963D01*
X-20904Y-15560D01*
X-12700Y-14114D01*
X-4496Y-15560D01*
X2718Y-19725D01*
X8073Y-26107D01*
X10922Y-33935D01*
X10922Y-42265D01*
X8073Y-50093D01*
X6399Y-52088D01*
X6254Y-52355D01*
X6225Y-52657D01*
X6315Y-52946D01*
X6512Y-53177D01*
X6783Y-53313D01*
X6983Y-53340D01*
X48153Y-53340D01*
X48450Y-53280D01*
G37*
%LPC*%
G36*
X201179Y167640D02*
X197445Y169187D01*
X194587Y172045D01*
X193040Y175779D01*
X193040Y179821D01*
X194587Y183555D01*
X197445Y186413D01*
X201179Y187960D01*
X205221Y187960D01*
X205723Y187752D01*
X206021Y187694D01*
X206318Y187757D01*
X206554Y187917D01*
X299147Y280511D01*
X299315Y280764D01*
X299370Y281062D01*
X299305Y281358D01*
X299147Y281588D01*
X293370Y287366D01*
X293370Y296834D01*
X300066Y303530D01*
X309534Y303530D01*
X316230Y296834D01*
X316230Y287366D01*
X309511Y280647D01*
X309329Y280610D01*
X309079Y280438D01*
X308915Y280183D01*
X308864Y279908D01*
X308864Y278733D01*
X212722Y182591D01*
X212554Y182338D01*
X212499Y182040D01*
X212557Y181760D01*
X213360Y179821D01*
X213360Y175779D01*
X211813Y172045D01*
X208955Y169187D01*
X205221Y167640D01*
X201179Y167640D01*
G37*
G36*
X217170Y292862D02*
X217170Y296834D01*
X223866Y303530D01*
X227838Y303530D01*
X227838Y292862D01*
X217170Y292862D01*
G37*
G36*
X175779Y167640D02*
X172045Y169187D01*
X169187Y172045D01*
X167640Y175779D01*
X167640Y179821D01*
X169187Y183555D01*
X172045Y186413D01*
X175779Y187960D01*
X179821Y187960D01*
X181042Y187454D01*
X181339Y187396D01*
X181636Y187459D01*
X181872Y187620D01*
X274255Y280003D01*
X274423Y280256D01*
X274478Y280554D01*
X274413Y280850D01*
X274255Y281080D01*
X267970Y287366D01*
X267970Y296834D01*
X274666Y303530D01*
X284134Y303530D01*
X290830Y296834D01*
X290830Y287366D01*
X284111Y280647D01*
X283929Y280610D01*
X283679Y280438D01*
X283515Y280183D01*
X283464Y279908D01*
X283464Y277717D01*
X187620Y181872D01*
X187452Y181619D01*
X187396Y181321D01*
X187454Y181042D01*
X187960Y179821D01*
X187960Y175779D01*
X186413Y172045D01*
X183555Y169187D01*
X179821Y167640D01*
X175779Y167640D01*
G37*
G36*
X229362Y292862D02*
X229362Y303530D01*
X233334Y303530D01*
X240030Y296834D01*
X240030Y292862D01*
X229362Y292862D01*
G37*
G36*
X277379Y167640D02*
X273645Y169187D01*
X270787Y172045D01*
X269240Y175779D01*
X269240Y179821D01*
X270787Y183555D01*
X273645Y186413D01*
X277379Y187960D01*
X281421Y187960D01*
X282642Y187454D01*
X282939Y187396D01*
X283236Y187459D01*
X283472Y187620D01*
X375855Y280003D01*
X376023Y280256D01*
X376078Y280554D01*
X376013Y280850D01*
X375855Y281080D01*
X369570Y287366D01*
X369570Y296834D01*
X376266Y303530D01*
X385734Y303530D01*
X392430Y296834D01*
X392430Y287366D01*
X385711Y280647D01*
X385529Y280610D01*
X385279Y280438D01*
X385115Y280183D01*
X385064Y279908D01*
X385064Y277717D01*
X289220Y181872D01*
X289052Y181619D01*
X288996Y181321D01*
X289054Y181042D01*
X289560Y179821D01*
X289560Y175779D01*
X288013Y172045D01*
X285155Y169187D01*
X281421Y167640D01*
X277379Y167640D01*
G37*
G36*
X251979Y167640D02*
X248245Y169187D01*
X245387Y172045D01*
X243840Y175779D01*
X243840Y179821D01*
X245387Y183555D01*
X248245Y186413D01*
X251979Y187960D01*
X256021Y187960D01*
X256523Y187752D01*
X256821Y187694D01*
X257118Y187757D01*
X257354Y187917D01*
X349947Y280511D01*
X350115Y280764D01*
X350170Y281062D01*
X350105Y281358D01*
X349947Y281588D01*
X344170Y287366D01*
X344170Y296834D01*
X350866Y303530D01*
X360334Y303530D01*
X367030Y296834D01*
X367030Y287366D01*
X360311Y280647D01*
X360129Y280610D01*
X359879Y280438D01*
X359715Y280183D01*
X359664Y279908D01*
X359664Y278733D01*
X263522Y182591D01*
X263354Y182338D01*
X263299Y182040D01*
X263357Y181760D01*
X264160Y179821D01*
X264160Y175779D01*
X262613Y172045D01*
X259755Y169187D01*
X256021Y167640D01*
X251979Y167640D01*
G37*
G36*
X226579Y167640D02*
X222845Y169187D01*
X219987Y172045D01*
X218440Y175779D01*
X218440Y179821D01*
X219987Y183555D01*
X222845Y186413D01*
X226579Y187960D01*
X230621Y187960D01*
X231842Y187454D01*
X232139Y187396D01*
X232436Y187459D01*
X232672Y187620D01*
X325055Y280003D01*
X325223Y280256D01*
X325278Y280554D01*
X325213Y280850D01*
X325055Y281080D01*
X318770Y287366D01*
X318770Y296834D01*
X325466Y303530D01*
X334934Y303530D01*
X341630Y296834D01*
X341630Y287366D01*
X334911Y280647D01*
X334729Y280610D01*
X334479Y280438D01*
X334315Y280183D01*
X334264Y279908D01*
X334264Y277717D01*
X238420Y181872D01*
X238252Y181619D01*
X238196Y181321D01*
X238254Y181042D01*
X238760Y179821D01*
X238760Y175779D01*
X237213Y172045D01*
X234355Y169187D01*
X230621Y167640D01*
X226579Y167640D01*
G37*
G36*
X99579Y15240D02*
X95845Y16787D01*
X92987Y19645D01*
X91440Y23379D01*
X91440Y27421D01*
X92987Y31155D01*
X95845Y34013D01*
X97066Y34519D01*
X97317Y34688D01*
X97483Y34943D01*
X97536Y35223D01*
X97536Y74201D01*
X97476Y74498D01*
X97313Y74740D01*
X36640Y135413D01*
X36387Y135580D01*
X36101Y135636D01*
X-17174Y135636D01*
X-23998Y142460D01*
X-23998Y187740D01*
X28160Y239898D01*
X208435Y239898D01*
X208732Y239958D01*
X208974Y240121D01*
X248855Y280003D01*
X249023Y280256D01*
X249078Y280554D01*
X249013Y280850D01*
X248855Y281080D01*
X242570Y287366D01*
X242570Y296834D01*
X249266Y303530D01*
X258734Y303530D01*
X265430Y296834D01*
X265430Y287366D01*
X258711Y280647D01*
X258529Y280610D01*
X258279Y280438D01*
X258115Y280183D01*
X258064Y279908D01*
X258064Y277717D01*
X212117Y231770D01*
X31842Y231770D01*
X31545Y231710D01*
X31303Y231547D01*
X-2733Y197511D01*
X-2900Y197258D01*
X-2956Y196960D01*
X-2891Y196664D01*
X-2715Y196416D01*
X-2457Y196257D01*
X-2194Y196210D01*
X3662Y196210D01*
X10428Y193407D01*
X15607Y188228D01*
X16885Y185144D01*
X17055Y184892D01*
X17309Y184727D01*
X17607Y184673D01*
X17903Y184741D01*
X18128Y184896D01*
X19645Y186413D01*
X23379Y187960D01*
X27421Y187960D01*
X31155Y186413D01*
X34013Y183555D01*
X35560Y179821D01*
X35560Y175779D01*
X34013Y172045D01*
X31155Y169187D01*
X27421Y167640D01*
X23379Y167640D01*
X19645Y169187D01*
X18128Y170704D01*
X17875Y170871D01*
X17577Y170927D01*
X17281Y170862D01*
X17033Y170686D01*
X16885Y170457D01*
X15607Y167372D01*
X10428Y162193D01*
X3662Y159390D01*
X-3662Y159390D01*
X-10428Y162193D01*
X-14569Y166334D01*
X-14822Y166501D01*
X-15120Y166557D01*
X-15416Y166492D01*
X-15664Y166316D01*
X-15823Y166058D01*
X-15870Y165795D01*
X-15870Y146142D01*
X-15810Y145845D01*
X-15647Y145603D01*
X-14031Y143987D01*
X-13778Y143820D01*
X-13492Y143764D01*
X39783Y143764D01*
X105664Y77883D01*
X105664Y35223D01*
X105724Y34926D01*
X105896Y34676D01*
X106134Y34519D01*
X107355Y34013D01*
X110213Y31155D01*
X111760Y27421D01*
X111760Y23379D01*
X110213Y19645D01*
X107355Y16787D01*
X103621Y15240D01*
X99579Y15240D01*
G37*
G36*
X229362Y280670D02*
X229362Y291338D01*
X240030Y291338D01*
X240030Y287366D01*
X233334Y280670D01*
X229362Y280670D01*
G37*
G36*
X223866Y280670D02*
X217170Y287366D01*
X217170Y291338D01*
X227838Y291338D01*
X227838Y280670D01*
X223866Y280670D01*
G37*
G36*
X470920Y242742D02*
X470920Y243627D01*
X472181Y246670D01*
X474510Y248999D01*
X477553Y250260D01*
X478438Y250260D01*
X478438Y242742D01*
X470920Y242742D01*
G37*
G36*
X479962Y242742D02*
X479962Y250260D01*
X480847Y250260D01*
X483890Y248999D01*
X486219Y246670D01*
X487480Y243627D01*
X487480Y242742D01*
X479962Y242742D01*
G37*
G36*
X477553Y233700D02*
X474510Y234961D01*
X472181Y237290D01*
X470920Y240333D01*
X470920Y241218D01*
X478438Y241218D01*
X478438Y233700D01*
X477553Y233700D01*
G37*
G36*
X479962Y233700D02*
X479962Y241218D01*
X487480Y241218D01*
X487480Y240333D01*
X486219Y237290D01*
X483890Y234961D01*
X480847Y233700D01*
X479962Y233700D01*
G37*
G36*
X402738Y159390D02*
X395972Y162193D01*
X390793Y167372D01*
X389515Y170457D01*
X389345Y170708D01*
X389091Y170873D01*
X388793Y170927D01*
X388497Y170859D01*
X388272Y170704D01*
X386755Y169187D01*
X383021Y167640D01*
X378979Y167640D01*
X375245Y169187D01*
X372387Y172045D01*
X370840Y175779D01*
X370840Y179821D01*
X372387Y183555D01*
X375245Y186413D01*
X376466Y186919D01*
X376717Y187088D01*
X376883Y187343D01*
X376936Y187623D01*
X376936Y205127D01*
X385545Y213736D01*
X437791Y213736D01*
X455260Y196267D01*
X455513Y196100D01*
X455799Y196044D01*
X471412Y196044D01*
X471709Y196104D01*
X471959Y196276D01*
X472116Y196514D01*
X472181Y196670D01*
X474510Y198999D01*
X477553Y200260D01*
X480847Y200260D01*
X483890Y198999D01*
X486219Y196670D01*
X487480Y193627D01*
X487480Y190333D01*
X486219Y187290D01*
X483890Y184961D01*
X480847Y183700D01*
X477553Y183700D01*
X474510Y184961D01*
X472181Y187290D01*
X472116Y187446D01*
X471947Y187697D01*
X471692Y187863D01*
X471412Y187916D01*
X452117Y187916D01*
X434648Y205385D01*
X434395Y205552D01*
X434109Y205608D01*
X389227Y205608D01*
X388930Y205548D01*
X388688Y205385D01*
X385287Y201984D01*
X385120Y201731D01*
X385064Y201445D01*
X385064Y187623D01*
X385124Y187326D01*
X385296Y187076D01*
X385534Y186919D01*
X386755Y186413D01*
X388272Y184896D01*
X388525Y184729D01*
X388823Y184673D01*
X389119Y184738D01*
X389367Y184914D01*
X389515Y185144D01*
X390793Y188228D01*
X395972Y193407D01*
X402738Y196210D01*
X410062Y196210D01*
X416828Y193407D01*
X422007Y188228D01*
X424810Y181462D01*
X424810Y174138D01*
X422007Y167372D01*
X416828Y162193D01*
X410062Y159390D01*
X402738Y159390D01*
G37*
G36*
X48779Y167640D02*
X45045Y169187D01*
X42187Y172045D01*
X40640Y175779D01*
X40640Y179821D01*
X42187Y183555D01*
X45045Y186413D01*
X48779Y187960D01*
X52821Y187960D01*
X56555Y186413D01*
X59413Y183555D01*
X60960Y179821D01*
X60960Y175779D01*
X59413Y172045D01*
X56555Y169187D01*
X52821Y167640D01*
X48779Y167640D01*
G37*
G36*
X305562Y178562D02*
X305562Y187960D01*
X306821Y187960D01*
X310555Y186413D01*
X313413Y183555D01*
X314960Y179821D01*
X314960Y178562D01*
X305562Y178562D01*
G37*
G36*
X328179Y167640D02*
X324445Y169187D01*
X321587Y172045D01*
X320040Y175779D01*
X320040Y179821D01*
X321587Y183555D01*
X324445Y186413D01*
X328179Y187960D01*
X332221Y187960D01*
X335955Y186413D01*
X338813Y183555D01*
X340360Y179821D01*
X340360Y175779D01*
X338813Y172045D01*
X335955Y169187D01*
X332221Y167640D01*
X328179Y167640D01*
G37*
G36*
X211482Y91360D02*
X207920Y92835D01*
X205194Y95561D01*
X204571Y97066D01*
X204402Y97317D01*
X204147Y97483D01*
X203867Y97536D01*
X153765Y97536D01*
X97536Y153765D01*
X97536Y167977D01*
X97476Y168274D01*
X97304Y168524D01*
X97066Y168681D01*
X95845Y169187D01*
X92987Y172045D01*
X91440Y175779D01*
X91440Y179821D01*
X92987Y183555D01*
X95845Y186413D01*
X99579Y187960D01*
X103621Y187960D01*
X107355Y186413D01*
X110213Y183555D01*
X111760Y179821D01*
X111760Y175779D01*
X110213Y172045D01*
X107355Y169187D01*
X106134Y168681D01*
X105883Y168512D01*
X105717Y168257D01*
X105664Y167977D01*
X105664Y157447D01*
X105724Y157150D01*
X105887Y156908D01*
X156908Y105887D01*
X157161Y105720D01*
X157447Y105664D01*
X204323Y105664D01*
X204620Y105724D01*
X204870Y105896D01*
X205027Y106134D01*
X205194Y106539D01*
X207920Y109265D01*
X211482Y110740D01*
X215337Y110740D01*
X218898Y109265D01*
X221624Y106539D01*
X223099Y102977D01*
X223099Y99122D01*
X221624Y95561D01*
X218898Y92835D01*
X215337Y91360D01*
X211482Y91360D01*
G37*
G36*
X74179Y167640D02*
X70445Y169187D01*
X67587Y172045D01*
X66040Y175779D01*
X66040Y179821D01*
X67587Y183555D01*
X70445Y186413D01*
X74179Y187960D01*
X78221Y187960D01*
X81955Y186413D01*
X84813Y183555D01*
X86360Y179821D01*
X86360Y175779D01*
X84813Y172045D01*
X81955Y169187D01*
X78221Y167640D01*
X74179Y167640D01*
G37*
G36*
X294640Y178562D02*
X294640Y179821D01*
X296187Y183555D01*
X299045Y186413D01*
X302779Y187960D01*
X304038Y187960D01*
X304038Y178562D01*
X294640Y178562D01*
G37*
G36*
X280374Y111310D02*
X276812Y112785D01*
X274086Y115511D01*
X273941Y115862D01*
X273772Y116113D01*
X273517Y116279D01*
X273237Y116332D01*
X159353Y116332D01*
X122936Y152749D01*
X122936Y167977D01*
X122876Y168274D01*
X122704Y168524D01*
X122466Y168681D01*
X121245Y169187D01*
X118387Y172045D01*
X116840Y175779D01*
X116840Y179821D01*
X118387Y183555D01*
X121245Y186413D01*
X124979Y187960D01*
X129021Y187960D01*
X132755Y186413D01*
X135613Y183555D01*
X137160Y179821D01*
X137160Y175779D01*
X135613Y172045D01*
X132755Y169187D01*
X131534Y168681D01*
X131283Y168512D01*
X131117Y168257D01*
X131064Y167977D01*
X131064Y156431D01*
X131124Y156134D01*
X131287Y155892D01*
X162496Y124683D01*
X162749Y124516D01*
X163035Y124460D01*
X272737Y124460D01*
X273034Y124520D01*
X273284Y124692D01*
X273441Y124930D01*
X274086Y126489D01*
X276812Y129215D01*
X280374Y130690D01*
X284229Y130690D01*
X287790Y129215D01*
X290516Y126489D01*
X291991Y122927D01*
X291991Y119072D01*
X290516Y115511D01*
X287790Y112785D01*
X284229Y111310D01*
X280374Y111310D01*
G37*
G36*
X366617Y148336D02*
X351536Y163417D01*
X351536Y167977D01*
X351476Y168274D01*
X351304Y168524D01*
X351066Y168681D01*
X349845Y169187D01*
X346987Y172045D01*
X345440Y175779D01*
X345440Y179821D01*
X346987Y183555D01*
X349845Y186413D01*
X353579Y187960D01*
X357621Y187960D01*
X361355Y186413D01*
X364213Y183555D01*
X365760Y179821D01*
X365760Y175779D01*
X364213Y172045D01*
X361355Y169187D01*
X360134Y168681D01*
X359883Y168512D01*
X359717Y168257D01*
X359664Y167977D01*
X359664Y167099D01*
X359724Y166802D01*
X359887Y166560D01*
X369760Y156687D01*
X370013Y156520D01*
X370299Y156464D01*
X442501Y156464D01*
X442798Y156524D01*
X443040Y156687D01*
X457397Y171044D01*
X471412Y171044D01*
X471709Y171104D01*
X471959Y171276D01*
X472116Y171514D01*
X472181Y171670D01*
X474510Y173999D01*
X477553Y175260D01*
X480847Y175260D01*
X483890Y173999D01*
X486219Y171670D01*
X487480Y168627D01*
X487480Y165333D01*
X486219Y162290D01*
X483890Y159961D01*
X480847Y158700D01*
X477553Y158700D01*
X474510Y159961D01*
X472181Y162290D01*
X472116Y162446D01*
X471947Y162697D01*
X471692Y162863D01*
X471412Y162916D01*
X461079Y162916D01*
X460782Y162856D01*
X460540Y162693D01*
X446183Y148336D01*
X366617Y148336D01*
G37*
G36*
X342419Y133398D02*
X338858Y134873D01*
X336132Y137599D01*
X335246Y139738D01*
X335077Y139989D01*
X334823Y140155D01*
X334542Y140208D01*
X161893Y140208D01*
X148336Y153765D01*
X148336Y167977D01*
X148276Y168274D01*
X148104Y168524D01*
X147866Y168681D01*
X146645Y169187D01*
X143787Y172045D01*
X142240Y175779D01*
X142240Y179821D01*
X143787Y183555D01*
X146645Y186413D01*
X150379Y187960D01*
X154421Y187960D01*
X158155Y186413D01*
X161013Y183555D01*
X162560Y179821D01*
X162560Y175779D01*
X161013Y172045D01*
X158155Y169187D01*
X156934Y168681D01*
X156683Y168512D01*
X156517Y168257D01*
X156464Y167977D01*
X156464Y157447D01*
X156524Y157150D01*
X156687Y156908D01*
X165036Y148559D01*
X165289Y148392D01*
X165575Y148336D01*
X335576Y148336D01*
X335873Y148396D01*
X336115Y148559D01*
X338858Y151303D01*
X342419Y152778D01*
X346274Y152778D01*
X349836Y151303D01*
X352562Y148577D01*
X354037Y145015D01*
X354037Y141160D01*
X352562Y137599D01*
X349836Y134873D01*
X346274Y133398D01*
X342419Y133398D01*
G37*
G36*
X302779Y167640D02*
X299045Y169187D01*
X296187Y172045D01*
X294640Y175779D01*
X294640Y177038D01*
X304038Y177038D01*
X304038Y167640D01*
X302779Y167640D01*
G37*
G36*
X305562Y167640D02*
X305562Y177038D01*
X314960Y177038D01*
X314960Y175779D01*
X313413Y172045D01*
X310555Y169187D01*
X306821Y167640D01*
X305562Y167640D01*
G37*
G36*
X318063Y41660D02*
X314502Y43135D01*
X311776Y45861D01*
X310301Y49423D01*
X310301Y53278D01*
X311776Y56839D01*
X314502Y59565D01*
X318063Y61040D01*
X321918Y61040D01*
X325480Y59565D01*
X328206Y56839D01*
X328601Y55884D01*
X328771Y55633D01*
X329025Y55467D01*
X329305Y55414D01*
X464314Y55414D01*
X464611Y55474D01*
X464852Y55637D01*
X504479Y95264D01*
X508689Y95264D01*
X508986Y95324D01*
X509227Y95487D01*
X511366Y97626D01*
X512260Y97996D01*
X512511Y98166D01*
X512676Y98420D01*
X512730Y98718D01*
X512662Y99014D01*
X512485Y99260D01*
X512260Y99404D01*
X511366Y99774D01*
X509227Y101913D01*
X508975Y102080D01*
X508689Y102136D01*
X501899Y102136D01*
X501602Y102076D01*
X501360Y101913D01*
X474270Y74823D01*
X474107Y74577D01*
X466766Y67236D01*
X398197Y67236D01*
X397900Y67176D01*
X397650Y67004D01*
X397493Y66766D01*
X397098Y65811D01*
X394372Y63085D01*
X390810Y61610D01*
X386955Y61610D01*
X383394Y63085D01*
X380668Y65811D01*
X379193Y69373D01*
X379193Y73227D01*
X380668Y76789D01*
X383394Y79515D01*
X386955Y80990D01*
X390810Y80990D01*
X394372Y79515D01*
X397098Y76789D01*
X397493Y75834D01*
X397663Y75583D01*
X397917Y75417D01*
X398197Y75364D01*
X463084Y75364D01*
X463381Y75424D01*
X463623Y75587D01*
X465613Y77577D01*
X465775Y77823D01*
X498217Y110264D01*
X508689Y110264D01*
X508986Y110324D01*
X509227Y110487D01*
X511366Y112626D01*
X512260Y112996D01*
X512511Y113166D01*
X512676Y113420D01*
X512730Y113718D01*
X512662Y114014D01*
X512485Y114260D01*
X512260Y114404D01*
X511366Y114774D01*
X509227Y116913D01*
X508975Y117080D01*
X508689Y117136D01*
X480740Y117136D01*
X480443Y117076D01*
X480201Y116913D01*
X460389Y97100D01*
X460221Y96847D01*
X460165Y96549D01*
X460223Y96270D01*
X460619Y95315D01*
X460619Y91460D01*
X459143Y87899D01*
X456418Y85173D01*
X452856Y83698D01*
X449001Y83698D01*
X445440Y85173D01*
X442714Y87899D01*
X441239Y91460D01*
X441239Y95315D01*
X442714Y98877D01*
X445440Y101603D01*
X449001Y103078D01*
X452856Y103078D01*
X453811Y102682D01*
X454108Y102625D01*
X454405Y102687D01*
X454641Y102848D01*
X477057Y125264D01*
X508689Y125264D01*
X508986Y125324D01*
X509227Y125487D01*
X511366Y127626D01*
X514152Y128780D01*
X527248Y128780D01*
X530034Y127626D01*
X532166Y125494D01*
X533320Y122708D01*
X533320Y119692D01*
X532166Y116906D01*
X530034Y114774D01*
X529141Y114404D01*
X528889Y114235D01*
X528724Y113980D01*
X528670Y113682D01*
X528738Y113386D01*
X528915Y113140D01*
X529141Y112996D01*
X530034Y112626D01*
X532166Y110494D01*
X533320Y107708D01*
X533320Y104692D01*
X532166Y101906D01*
X530034Y99774D01*
X529141Y99404D01*
X528889Y99235D01*
X528724Y98980D01*
X528670Y98682D01*
X528738Y98386D01*
X528915Y98140D01*
X529141Y97996D01*
X530034Y97626D01*
X532166Y95494D01*
X533320Y92708D01*
X533320Y89692D01*
X532166Y86906D01*
X530034Y84774D01*
X529141Y84404D01*
X528889Y84235D01*
X528724Y83980D01*
X528670Y83682D01*
X528738Y83386D01*
X528915Y83140D01*
X529141Y82996D01*
X530034Y82626D01*
X532166Y80494D01*
X533320Y77708D01*
X533320Y76962D01*
X508080Y76962D01*
X508080Y77708D01*
X509234Y80494D01*
X511366Y82626D01*
X512260Y82996D01*
X512511Y83166D01*
X512676Y83420D01*
X512730Y83718D01*
X512662Y84014D01*
X512485Y84260D01*
X512260Y84404D01*
X511366Y84774D01*
X509227Y86913D01*
X508975Y87080D01*
X508689Y87136D01*
X508162Y87136D01*
X507864Y87076D01*
X507623Y86913D01*
X467996Y47286D01*
X329305Y47286D01*
X329008Y47226D01*
X328758Y47054D01*
X328601Y46816D01*
X328206Y45861D01*
X325480Y43135D01*
X321918Y41660D01*
X318063Y41660D01*
G37*
G36*
X521462Y68620D02*
X521462Y75438D01*
X533320Y75438D01*
X533320Y74692D01*
X532166Y71906D01*
X530034Y69774D01*
X527248Y68620D01*
X521462Y68620D01*
G37*
G36*
X514152Y68620D02*
X511366Y69774D01*
X509234Y71906D01*
X508080Y74692D01*
X508080Y75438D01*
X519938Y75438D01*
X519938Y68620D01*
X514152Y68620D01*
G37*
G36*
X402738Y6990D02*
X395972Y9793D01*
X390793Y14972D01*
X389515Y18057D01*
X389345Y18308D01*
X389091Y18473D01*
X388793Y18527D01*
X388497Y18459D01*
X388272Y18304D01*
X386755Y16787D01*
X383021Y15240D01*
X378979Y15240D01*
X375245Y16787D01*
X372387Y19645D01*
X370840Y23379D01*
X370840Y27421D01*
X372387Y31155D01*
X375245Y34013D01*
X378979Y35560D01*
X383021Y35560D01*
X386755Y34013D01*
X388272Y32496D01*
X388525Y32329D01*
X388823Y32273D01*
X389119Y32338D01*
X389367Y32514D01*
X389515Y32744D01*
X390793Y35828D01*
X395972Y41007D01*
X402738Y43810D01*
X410062Y43810D01*
X416828Y41007D01*
X422007Y35828D01*
X424810Y29062D01*
X424810Y21738D01*
X422007Y14972D01*
X416828Y9793D01*
X410062Y6990D01*
X402738Y6990D01*
G37*
G36*
X-3662Y6990D02*
X-10428Y9793D01*
X-15607Y14972D01*
X-18410Y21738D01*
X-18410Y29062D01*
X-15607Y35828D01*
X-10428Y41007D01*
X-3662Y43810D01*
X3662Y43810D01*
X10428Y41007D01*
X15664Y35772D01*
X15747Y35648D01*
X16001Y35483D01*
X16300Y35430D01*
X16596Y35497D01*
X16687Y35560D01*
X34072Y35560D01*
X35560Y34072D01*
X35560Y16728D01*
X34072Y15240D01*
X16681Y15240D01*
X16568Y15315D01*
X16270Y15371D01*
X15973Y15305D01*
X15726Y15130D01*
X15654Y15018D01*
X10428Y9793D01*
X3662Y6990D01*
X-3662Y6990D01*
G37*
G36*
X328179Y15240D02*
X324445Y16787D01*
X321587Y19645D01*
X320040Y23379D01*
X320040Y27421D01*
X321587Y31155D01*
X324445Y34013D01*
X328179Y35560D01*
X332221Y35560D01*
X335955Y34013D01*
X338813Y31155D01*
X340360Y27421D01*
X340360Y23379D01*
X338813Y19645D01*
X335955Y16787D01*
X332221Y15240D01*
X328179Y15240D01*
G37*
G36*
X277379Y15240D02*
X273645Y16787D01*
X270787Y19645D01*
X269240Y23379D01*
X269240Y27421D01*
X270787Y31155D01*
X273645Y34013D01*
X277379Y35560D01*
X281421Y35560D01*
X285155Y34013D01*
X288013Y31155D01*
X289560Y27421D01*
X289560Y23379D01*
X288013Y19645D01*
X285155Y16787D01*
X281421Y15240D01*
X277379Y15240D01*
G37*
G36*
X302779Y15240D02*
X299045Y16787D01*
X296187Y19645D01*
X294640Y23379D01*
X294640Y27421D01*
X296187Y31155D01*
X299045Y34013D01*
X302779Y35560D01*
X306821Y35560D01*
X310555Y34013D01*
X313413Y31155D01*
X314960Y27421D01*
X314960Y23379D01*
X313413Y19645D01*
X310555Y16787D01*
X306821Y15240D01*
X302779Y15240D01*
G37*
G36*
X345440Y26162D02*
X345440Y27421D01*
X346987Y31155D01*
X349845Y34013D01*
X353579Y35560D01*
X354838Y35560D01*
X354838Y26162D01*
X345440Y26162D01*
G37*
G36*
X251979Y15240D02*
X248245Y16787D01*
X245387Y19645D01*
X243840Y23379D01*
X243840Y27421D01*
X245387Y31155D01*
X248245Y34013D01*
X251979Y35560D01*
X256021Y35560D01*
X259755Y34013D01*
X262613Y31155D01*
X264160Y27421D01*
X264160Y23379D01*
X262613Y19645D01*
X259755Y16787D01*
X256021Y15240D01*
X251979Y15240D01*
G37*
G36*
X226579Y15240D02*
X222845Y16787D01*
X219987Y19645D01*
X218440Y23379D01*
X218440Y27421D01*
X219987Y31155D01*
X222845Y34013D01*
X226579Y35560D01*
X230621Y35560D01*
X234355Y34013D01*
X237213Y31155D01*
X238760Y27421D01*
X238760Y23379D01*
X237213Y19645D01*
X234355Y16787D01*
X230621Y15240D01*
X226579Y15240D01*
G37*
G36*
X201179Y15240D02*
X197445Y16787D01*
X194587Y19645D01*
X193040Y23379D01*
X193040Y27421D01*
X194587Y31155D01*
X197445Y34013D01*
X201179Y35560D01*
X205221Y35560D01*
X208955Y34013D01*
X211813Y31155D01*
X213360Y27421D01*
X213360Y23379D01*
X211813Y19645D01*
X208955Y16787D01*
X205221Y15240D01*
X201179Y15240D01*
G37*
G36*
X175779Y-43180D02*
X172045Y-41633D01*
X169187Y-38775D01*
X167640Y-35041D01*
X167640Y-15759D01*
X169187Y-12025D01*
X172045Y-9167D01*
X173266Y-8661D01*
X173517Y-8492D01*
X173683Y-8237D01*
X173736Y-7957D01*
X173736Y15577D01*
X173676Y15874D01*
X173504Y16124D01*
X173266Y16281D01*
X172045Y16787D01*
X169187Y19645D01*
X167640Y23379D01*
X167640Y27421D01*
X169187Y31155D01*
X172045Y34013D01*
X175779Y35560D01*
X179821Y35560D01*
X183555Y34013D01*
X186413Y31155D01*
X187960Y27421D01*
X187960Y23379D01*
X186413Y19645D01*
X183555Y16787D01*
X182334Y16281D01*
X182083Y16112D01*
X181917Y15857D01*
X181864Y15577D01*
X181864Y-7957D01*
X181924Y-8254D01*
X182096Y-8504D01*
X182334Y-8661D01*
X183555Y-9167D01*
X186413Y-12025D01*
X187960Y-15759D01*
X187960Y-35041D01*
X186413Y-38775D01*
X183555Y-41633D01*
X179821Y-43180D01*
X175779Y-43180D01*
G37*
G36*
X150379Y-43180D02*
X146645Y-41633D01*
X143787Y-38775D01*
X142240Y-35041D01*
X142240Y-15759D01*
X143787Y-12025D01*
X146645Y-9167D01*
X147866Y-8661D01*
X148117Y-8492D01*
X148283Y-8237D01*
X148336Y-7957D01*
X148336Y15577D01*
X148276Y15874D01*
X148104Y16124D01*
X147866Y16281D01*
X146645Y16787D01*
X143787Y19645D01*
X142240Y23379D01*
X142240Y27421D01*
X143787Y31155D01*
X146645Y34013D01*
X150379Y35560D01*
X154421Y35560D01*
X158155Y34013D01*
X161013Y31155D01*
X162560Y27421D01*
X162560Y23379D01*
X161013Y19645D01*
X158155Y16787D01*
X156934Y16281D01*
X156683Y16112D01*
X156517Y15857D01*
X156464Y15577D01*
X156464Y-7957D01*
X156524Y-8254D01*
X156696Y-8504D01*
X156934Y-8661D01*
X158155Y-9167D01*
X161013Y-12025D01*
X162560Y-15759D01*
X162560Y-35041D01*
X161013Y-38775D01*
X158155Y-41633D01*
X154421Y-43180D01*
X150379Y-43180D01*
G37*
G36*
X124979Y-43180D02*
X121245Y-41633D01*
X118387Y-38775D01*
X116840Y-35041D01*
X116840Y-15759D01*
X118387Y-12025D01*
X121245Y-9167D01*
X122466Y-8661D01*
X122717Y-8492D01*
X122883Y-8237D01*
X122936Y-7957D01*
X122936Y15577D01*
X122876Y15874D01*
X122704Y16124D01*
X122466Y16281D01*
X121245Y16787D01*
X118387Y19645D01*
X116840Y23379D01*
X116840Y27421D01*
X118387Y31155D01*
X121245Y34013D01*
X124979Y35560D01*
X129021Y35560D01*
X132755Y34013D01*
X135613Y31155D01*
X137160Y27421D01*
X137160Y23379D01*
X135613Y19645D01*
X132755Y16787D01*
X131534Y16281D01*
X131283Y16112D01*
X131117Y15857D01*
X131064Y15577D01*
X131064Y-7957D01*
X131124Y-8254D01*
X131296Y-8504D01*
X131534Y-8661D01*
X132755Y-9167D01*
X135613Y-12025D01*
X137160Y-15759D01*
X137160Y-35041D01*
X135613Y-38775D01*
X132755Y-41633D01*
X129021Y-43180D01*
X124979Y-43180D01*
G37*
G36*
X74179Y15240D02*
X70445Y16787D01*
X67587Y19645D01*
X66040Y23379D01*
X66040Y27421D01*
X67587Y31155D01*
X70445Y34013D01*
X74179Y35560D01*
X78221Y35560D01*
X81955Y34013D01*
X84813Y31155D01*
X86360Y27421D01*
X86360Y23379D01*
X84813Y19645D01*
X81955Y16787D01*
X78221Y15240D01*
X74179Y15240D01*
G37*
G36*
X356362Y26162D02*
X356362Y35560D01*
X357621Y35560D01*
X361355Y34013D01*
X364213Y31155D01*
X365760Y27421D01*
X365760Y26162D01*
X356362Y26162D01*
G37*
G36*
X356362Y15240D02*
X356362Y24638D01*
X365760Y24638D01*
X365760Y23379D01*
X364213Y19645D01*
X361355Y16787D01*
X357621Y15240D01*
X356362Y15240D01*
G37*
G36*
X353579Y15240D02*
X349845Y16787D01*
X346987Y19645D01*
X345440Y23379D01*
X345440Y24638D01*
X354838Y24638D01*
X354838Y15240D01*
X353579Y15240D01*
G37*
G36*
X218440Y-24638D02*
X218440Y-15759D01*
X219987Y-12025D01*
X222845Y-9167D01*
X226579Y-7620D01*
X227838Y-7620D01*
X227838Y-24638D01*
X218440Y-24638D01*
G37*
G36*
X229362Y-24638D02*
X229362Y-7620D01*
X230621Y-7620D01*
X234355Y-9167D01*
X237213Y-12025D01*
X238760Y-15759D01*
X238760Y-24638D01*
X229362Y-24638D01*
G37*
G36*
X229362Y-43180D02*
X229362Y-26162D01*
X238760Y-26162D01*
X238760Y-35041D01*
X237213Y-38775D01*
X234355Y-41633D01*
X230621Y-43180D01*
X229362Y-43180D01*
G37*
G36*
X226579Y-43180D02*
X222845Y-41633D01*
X219987Y-38775D01*
X218440Y-35041D01*
X218440Y-26162D01*
X227838Y-26162D01*
X227838Y-43180D01*
X226579Y-43180D01*
G37*
%LPD*%
D10*
X25400Y25400D03*
D11*
X50800Y25400D03*
X76200Y25400D03*
X101600Y25400D03*
X127000Y25400D03*
X152400Y25400D03*
X177800Y25400D03*
X203200Y25400D03*
X228600Y25400D03*
X254000Y25400D03*
X279400Y25400D03*
X304800Y25400D03*
X330200Y25400D03*
X355600Y25400D03*
X381000Y25400D03*
X381000Y177800D03*
X355600Y177800D03*
X330200Y177800D03*
X304800Y177800D03*
X279400Y177800D03*
X254000Y177800D03*
X228600Y177800D03*
X203200Y177800D03*
X177800Y177800D03*
X152400Y177800D03*
X127000Y177800D03*
X101600Y177800D03*
X76200Y177800D03*
X50800Y177800D03*
X25400Y177800D03*
D12*
X228600Y-17780D02*
X228600Y-33020D01*
X203200Y-33020D02*
X203200Y-17780D01*
X177800Y-17780D02*
X177800Y-33020D01*
X152400Y-33020D02*
X152400Y-17780D01*
X127000Y-17780D02*
X127000Y-33020D01*
D13*
X479200Y166980D03*
X479200Y191980D03*
X479200Y216980D03*
X479200Y241980D03*
D14*
X515660Y76200D02*
X525740Y76200D01*
X525740Y91200D02*
X515660Y91200D01*
X515660Y106200D02*
X525740Y106200D01*
X525740Y121200D02*
X515660Y121200D01*
D15*
X213409Y101050D03*
X319991Y51350D03*
X344347Y143088D03*
X450929Y93388D03*
X282301Y121000D03*
X388883Y71300D03*
D16*
X381000Y292100D03*
D17*
X406400Y292100D03*
D16*
X355600Y292100D03*
X330200Y292100D03*
X304800Y292100D03*
X279400Y292100D03*
X254000Y292100D03*
X228600Y292100D03*
D18*
X50800Y-48400D02*
X53200Y-50800D01*
X50800Y-48400D02*
X50800Y25400D01*
X53200Y-50800D02*
X203200Y-50800D01*
X203200Y-25400D01*
X467580Y228600D02*
X479200Y216980D01*
X467580Y228600D02*
X406400Y228600D01*
X530487Y216980D02*
X546100Y201367D01*
X530487Y216980D02*
X479200Y216980D01*
X546100Y201367D02*
X546100Y25400D01*
X469900Y-50800D02*
X203200Y-50800D01*
X469900Y-50800D02*
X546100Y25400D01*
X406400Y228600D02*
X406400Y292100D01*
X101600Y76200D02*
X101600Y25400D01*
X101600Y76200D02*
X38100Y139700D01*
X-15491Y139700D02*
X-19934Y144143D01*
X-15491Y139700D02*
X38100Y139700D01*
X210434Y235834D02*
X254000Y279400D01*
X-19934Y186057D02*
X-19934Y144143D01*
X29843Y235834D02*
X210434Y235834D01*
X29843Y235834D02*
X-19934Y186057D01*
X254000Y279400D02*
X254000Y292100D01*
X355600Y280416D02*
X254000Y178816D01*
X254000Y177800D01*
X355600Y280416D02*
X355600Y292100D01*
X330200Y279400D02*
X228600Y177800D01*
X330200Y279400D02*
X330200Y292100D01*
X304800Y280416D02*
X203200Y178816D01*
X203200Y177800D01*
X304800Y280416D02*
X304800Y292100D01*
X279400Y279400D02*
X177800Y177800D01*
X279400Y279400D02*
X279400Y292100D01*
X177800Y25400D02*
X177800Y-25400D01*
X152400Y-25400D02*
X152400Y25400D01*
X381000Y203444D02*
X387228Y209672D01*
X381000Y203444D02*
X381000Y177800D01*
X453800Y191980D02*
X479200Y191980D01*
X453800Y191980D02*
X436108Y209672D01*
X387228Y209672D01*
X355600Y165100D02*
X368300Y152400D01*
X355600Y165100D02*
X355600Y177800D01*
X368300Y152400D02*
X444500Y152400D01*
X459080Y166980D01*
X479200Y166980D01*
X469983Y76200D02*
X465083Y71300D01*
X388883Y71300D01*
X469900Y76200D02*
X469983Y76200D01*
X469900Y76200D02*
X499900Y106200D01*
X520700Y106200D01*
X381000Y279400D02*
X279400Y177800D01*
X381000Y279400D02*
X381000Y292100D01*
X127000Y25400D02*
X127000Y-25400D01*
X163576Y144272D02*
X343408Y144272D01*
X163576Y144272D02*
X152400Y155448D01*
X152400Y177800D01*
X343408Y144272D02*
X344347Y143088D01*
X213360Y101600D02*
X155448Y101600D01*
X101600Y155448D01*
X101600Y177800D01*
X213360Y101600D02*
X213409Y101050D01*
X319991Y51350D02*
X466313Y51350D01*
X506163Y91200D02*
X520700Y91200D01*
X506163Y91200D02*
X466313Y51350D01*
X450929Y93388D02*
X478741Y121200D01*
X520700Y121200D01*
X282301Y121000D02*
X281697Y120396D01*
X161036Y120396D01*
X127000Y154432D01*
X127000Y177800D01*
M02*
