G04 EAGLE Gerber RS-274X export*
G75*
%MOMM*%
%FSLAX34Y34*%
%LPD*%
%INTop Copper*%
%IPPOS*%
%AMOC8*
5,1,8,0,0,1.08239X$1,22.5*%
G01*
G04 Define Apertures*
%ADD10R,1.524000X1.524000*%
%ADD11C,1.524000*%
%ADD12C,1.524000*%
%ADD13C,1.148000*%
%ADD14C,1.008000*%
%ADD15C,1.430000*%
%ADD16P,1.92449X8X292.5*%
%ADD17R,1.778000X1.778000*%
D10*
X25400Y25400D03*
D11*
X50800Y25400D03*
X76200Y25400D03*
X101600Y25400D03*
X127000Y25400D03*
X152400Y25400D03*
X177800Y25400D03*
X203200Y25400D03*
X228600Y25400D03*
X254000Y25400D03*
X279400Y25400D03*
X304800Y25400D03*
X330200Y25400D03*
X355600Y25400D03*
X381000Y25400D03*
X381000Y177800D03*
X355600Y177800D03*
X330200Y177800D03*
X304800Y177800D03*
X279400Y177800D03*
X254000Y177800D03*
X228600Y177800D03*
X203200Y177800D03*
X177800Y177800D03*
X152400Y177800D03*
X127000Y177800D03*
X101600Y177800D03*
X76200Y177800D03*
X50800Y177800D03*
X25400Y177800D03*
D12*
X228600Y-17780D02*
X228600Y-33020D01*
X203200Y-33020D02*
X203200Y-17780D01*
X177800Y-17780D02*
X177800Y-33020D01*
X152400Y-33020D02*
X152400Y-17780D01*
X127000Y-17780D02*
X127000Y-33020D01*
D13*
X479200Y166980D03*
X479200Y191980D03*
X479200Y216980D03*
X479200Y241980D03*
D14*
X515660Y76200D02*
X525740Y76200D01*
X525740Y91200D02*
X515660Y91200D01*
X515660Y106200D02*
X525740Y106200D01*
X525740Y121200D02*
X515660Y121200D01*
D15*
X213409Y101050D03*
X319991Y51350D03*
X344347Y143088D03*
X450929Y93388D03*
X282301Y121000D03*
X388883Y71300D03*
D16*
X381000Y292100D03*
D17*
X406400Y292100D03*
D16*
X355600Y292100D03*
X330200Y292100D03*
X304800Y292100D03*
X279400Y292100D03*
X254000Y292100D03*
X228600Y292100D03*
M02*
